<mxfile host="app.diagrams.net" modified="2023-07-17T12:07:50.035Z" agent="Mozilla/5.0 (X11; Linux x86_64) AppleWebKit/537.36 (KHTML, like Gecko) Chrome/113.0.0.0 Safari/537.36" etag="lwqLV2oiaC1V63ia9kLQ" version="21.6.2" type="github">
  <diagram name="Страница 1" id="ArhTz1QJqoJ26JUiT9pj">
    <mxGraphModel dx="1360" dy="775" grid="1" gridSize="10" guides="1" tooltips="1" connect="1" arrows="1" fold="1" page="1" pageScale="1" pageWidth="2336" pageHeight="1654" math="0" shadow="0">
      <root>
        <mxCell id="0" />
        <mxCell id="1" parent="0" />
        <mxCell id="ST9J7T8Uzd0xjBjnx_Wn-15" value="Users" style="shape=table;startSize=30;container=1;collapsible=1;childLayout=tableLayout;fixedRows=1;rowLines=0;fontStyle=1;align=center;resizeLast=1;html=1;fontSize=16;" parent="1" vertex="1">
          <mxGeometry x="988" y="840" width="360" height="350" as="geometry" />
        </mxCell>
        <mxCell id="ST9J7T8Uzd0xjBjnx_Wn-16" value="" style="shape=tableRow;horizontal=0;startSize=0;swimlaneHead=0;swimlaneBody=0;fillColor=none;collapsible=0;dropTarget=0;points=[[0,0.5],[1,0.5]];portConstraint=eastwest;top=0;left=0;right=0;bottom=1;" parent="ST9J7T8Uzd0xjBjnx_Wn-15" vertex="1">
          <mxGeometry y="30" width="360" height="80" as="geometry" />
        </mxCell>
        <mxCell id="ST9J7T8Uzd0xjBjnx_Wn-17" value="PK" style="shape=partialRectangle;connectable=0;fillColor=none;top=0;left=0;bottom=0;right=0;fontStyle=1;overflow=hidden;whiteSpace=wrap;html=1;fontSize=16;" parent="ST9J7T8Uzd0xjBjnx_Wn-16" vertex="1">
          <mxGeometry width="80" height="80" as="geometry">
            <mxRectangle width="80" height="80" as="alternateBounds" />
          </mxGeometry>
        </mxCell>
        <mxCell id="ST9J7T8Uzd0xjBjnx_Wn-18" value="email" style="shape=partialRectangle;connectable=0;fillColor=none;top=0;left=0;bottom=0;right=0;align=left;spacingLeft=6;fontStyle=5;overflow=hidden;whiteSpace=wrap;html=1;fontSize=16;" parent="ST9J7T8Uzd0xjBjnx_Wn-16" vertex="1">
          <mxGeometry x="80" width="280" height="80" as="geometry">
            <mxRectangle width="280" height="80" as="alternateBounds" />
          </mxGeometry>
        </mxCell>
        <mxCell id="ST9J7T8Uzd0xjBjnx_Wn-19" value="" style="shape=tableRow;horizontal=0;startSize=0;swimlaneHead=0;swimlaneBody=0;fillColor=none;collapsible=0;dropTarget=0;points=[[0,0.5],[1,0.5]];portConstraint=eastwest;top=0;left=0;right=0;bottom=0;" parent="ST9J7T8Uzd0xjBjnx_Wn-15" vertex="1">
          <mxGeometry y="110" width="360" height="80" as="geometry" />
        </mxCell>
        <mxCell id="ST9J7T8Uzd0xjBjnx_Wn-20" value="" style="shape=partialRectangle;connectable=0;fillColor=none;top=0;left=0;bottom=0;right=0;editable=1;overflow=hidden;whiteSpace=wrap;html=1;fontSize=16;" parent="ST9J7T8Uzd0xjBjnx_Wn-19" vertex="1">
          <mxGeometry width="80" height="80" as="geometry">
            <mxRectangle width="80" height="80" as="alternateBounds" />
          </mxGeometry>
        </mxCell>
        <mxCell id="ST9J7T8Uzd0xjBjnx_Wn-21" value="password" style="shape=partialRectangle;connectable=0;fillColor=none;top=0;left=0;bottom=0;right=0;align=left;spacingLeft=6;overflow=hidden;whiteSpace=wrap;html=1;fontSize=16;" parent="ST9J7T8Uzd0xjBjnx_Wn-19" vertex="1">
          <mxGeometry x="80" width="280" height="80" as="geometry">
            <mxRectangle width="280" height="80" as="alternateBounds" />
          </mxGeometry>
        </mxCell>
        <mxCell id="ST9J7T8Uzd0xjBjnx_Wn-22" value="" style="shape=tableRow;horizontal=0;startSize=0;swimlaneHead=0;swimlaneBody=0;fillColor=none;collapsible=0;dropTarget=0;points=[[0,0.5],[1,0.5]];portConstraint=eastwest;top=0;left=0;right=0;bottom=0;" parent="ST9J7T8Uzd0xjBjnx_Wn-15" vertex="1">
          <mxGeometry y="190" width="360" height="80" as="geometry" />
        </mxCell>
        <mxCell id="ST9J7T8Uzd0xjBjnx_Wn-23" value="" style="shape=partialRectangle;connectable=0;fillColor=none;top=0;left=0;bottom=0;right=0;editable=1;overflow=hidden;whiteSpace=wrap;html=1;fontSize=16;" parent="ST9J7T8Uzd0xjBjnx_Wn-22" vertex="1">
          <mxGeometry width="80" height="80" as="geometry">
            <mxRectangle width="80" height="80" as="alternateBounds" />
          </mxGeometry>
        </mxCell>
        <mxCell id="ST9J7T8Uzd0xjBjnx_Wn-24" value="username" style="shape=partialRectangle;connectable=0;fillColor=none;top=0;left=0;bottom=0;right=0;align=left;spacingLeft=6;overflow=hidden;whiteSpace=wrap;html=1;fontSize=16;" parent="ST9J7T8Uzd0xjBjnx_Wn-22" vertex="1">
          <mxGeometry x="80" width="280" height="80" as="geometry">
            <mxRectangle width="280" height="80" as="alternateBounds" />
          </mxGeometry>
        </mxCell>
        <mxCell id="ST9J7T8Uzd0xjBjnx_Wn-69" value="" style="shape=tableRow;horizontal=0;startSize=0;swimlaneHead=0;swimlaneBody=0;fillColor=none;collapsible=0;dropTarget=0;points=[[0,0.5],[1,0.5]];portConstraint=eastwest;top=0;left=0;right=0;bottom=0;" parent="ST9J7T8Uzd0xjBjnx_Wn-15" vertex="1">
          <mxGeometry y="270" width="360" height="80" as="geometry" />
        </mxCell>
        <mxCell id="ST9J7T8Uzd0xjBjnx_Wn-70" value="" style="shape=partialRectangle;connectable=0;fillColor=none;top=0;left=0;bottom=0;right=0;editable=1;overflow=hidden;whiteSpace=wrap;html=1;fontSize=16;" parent="ST9J7T8Uzd0xjBjnx_Wn-69" vertex="1">
          <mxGeometry width="80" height="80" as="geometry">
            <mxRectangle width="80" height="80" as="alternateBounds" />
          </mxGeometry>
        </mxCell>
        <mxCell id="ST9J7T8Uzd0xjBjnx_Wn-71" value="last_activity" style="shape=partialRectangle;connectable=0;fillColor=none;top=0;left=0;bottom=0;right=0;align=left;spacingLeft=6;overflow=hidden;whiteSpace=wrap;html=1;fontSize=16;" parent="ST9J7T8Uzd0xjBjnx_Wn-69" vertex="1">
          <mxGeometry x="80" width="280" height="80" as="geometry">
            <mxRectangle width="280" height="80" as="alternateBounds" />
          </mxGeometry>
        </mxCell>
        <mxCell id="ST9J7T8Uzd0xjBjnx_Wn-31" value="Dialogues" style="shape=table;startSize=30;container=1;collapsible=1;childLayout=tableLayout;fixedRows=1;rowLines=0;fontStyle=1;align=center;resizeLast=1;html=1;whiteSpace=wrap;fontSize=16;" parent="1" vertex="1">
          <mxGeometry x="1720" y="480" width="360" height="350" as="geometry" />
        </mxCell>
        <mxCell id="ST9J7T8Uzd0xjBjnx_Wn-32" value="" style="shape=tableRow;horizontal=0;startSize=0;swimlaneHead=0;swimlaneBody=0;fillColor=none;collapsible=0;dropTarget=0;points=[[0,0.5],[1,0.5]];portConstraint=eastwest;top=0;left=0;right=0;bottom=0;html=1;" parent="ST9J7T8Uzd0xjBjnx_Wn-31" vertex="1">
          <mxGeometry y="30" width="360" height="80" as="geometry" />
        </mxCell>
        <mxCell id="ST9J7T8Uzd0xjBjnx_Wn-33" value="PK" style="shape=partialRectangle;connectable=0;fillColor=none;top=0;left=0;bottom=0;right=0;fontStyle=1;overflow=hidden;html=1;whiteSpace=wrap;fontSize=16;" parent="ST9J7T8Uzd0xjBjnx_Wn-32" vertex="1">
          <mxGeometry width="80" height="80" as="geometry">
            <mxRectangle width="80" height="80" as="alternateBounds" />
          </mxGeometry>
        </mxCell>
        <mxCell id="ST9J7T8Uzd0xjBjnx_Wn-34" value="dialogue_ID" style="shape=partialRectangle;connectable=0;fillColor=none;top=0;left=0;bottom=0;right=0;align=left;spacingLeft=6;fontStyle=5;overflow=hidden;html=1;whiteSpace=wrap;fontSize=16;" parent="ST9J7T8Uzd0xjBjnx_Wn-32" vertex="1">
          <mxGeometry x="80" width="280" height="80" as="geometry">
            <mxRectangle width="280" height="80" as="alternateBounds" />
          </mxGeometry>
        </mxCell>
        <mxCell id="ST9J7T8Uzd0xjBjnx_Wn-35" value="" style="shape=tableRow;horizontal=0;startSize=0;swimlaneHead=0;swimlaneBody=0;fillColor=none;collapsible=0;dropTarget=0;points=[[0,0.5],[1,0.5]];portConstraint=eastwest;top=0;left=0;right=0;bottom=1;html=1;" parent="ST9J7T8Uzd0xjBjnx_Wn-31" vertex="1">
          <mxGeometry y="110" width="360" height="80" as="geometry" />
        </mxCell>
        <mxCell id="ST9J7T8Uzd0xjBjnx_Wn-36" value="FK1" style="shape=partialRectangle;connectable=0;fillColor=none;top=0;left=0;bottom=0;right=0;fontStyle=1;overflow=hidden;html=1;whiteSpace=wrap;fontSize=16;" parent="ST9J7T8Uzd0xjBjnx_Wn-35" vertex="1">
          <mxGeometry width="80" height="80" as="geometry">
            <mxRectangle width="80" height="80" as="alternateBounds" />
          </mxGeometry>
        </mxCell>
        <mxCell id="ST9J7T8Uzd0xjBjnx_Wn-37" value="first_user_email" style="shape=partialRectangle;connectable=0;fillColor=none;top=0;left=0;bottom=0;right=0;align=left;spacingLeft=6;fontStyle=5;overflow=hidden;html=1;whiteSpace=wrap;fontSize=16;" parent="ST9J7T8Uzd0xjBjnx_Wn-35" vertex="1">
          <mxGeometry x="80" width="280" height="80" as="geometry">
            <mxRectangle width="280" height="80" as="alternateBounds" />
          </mxGeometry>
        </mxCell>
        <mxCell id="ST9J7T8Uzd0xjBjnx_Wn-44" value="" style="shape=tableRow;horizontal=0;startSize=0;swimlaneHead=0;swimlaneBody=0;fillColor=none;collapsible=0;dropTarget=0;points=[[0,0.5],[1,0.5]];portConstraint=eastwest;top=0;left=0;right=0;bottom=1;html=1;" parent="ST9J7T8Uzd0xjBjnx_Wn-31" vertex="1">
          <mxGeometry y="190" width="360" height="80" as="geometry" />
        </mxCell>
        <mxCell id="ST9J7T8Uzd0xjBjnx_Wn-45" value="FK2" style="shape=partialRectangle;connectable=0;fillColor=none;top=0;left=0;bottom=0;right=0;fontStyle=1;overflow=hidden;html=1;whiteSpace=wrap;fontSize=16;" parent="ST9J7T8Uzd0xjBjnx_Wn-44" vertex="1">
          <mxGeometry width="80" height="80" as="geometry">
            <mxRectangle width="80" height="80" as="alternateBounds" />
          </mxGeometry>
        </mxCell>
        <mxCell id="ST9J7T8Uzd0xjBjnx_Wn-46" value="second_user_email" style="shape=partialRectangle;connectable=0;fillColor=none;top=0;left=0;bottom=0;right=0;align=left;spacingLeft=6;fontStyle=5;overflow=hidden;html=1;whiteSpace=wrap;fontSize=16;" parent="ST9J7T8Uzd0xjBjnx_Wn-44" vertex="1">
          <mxGeometry x="80" width="280" height="80" as="geometry">
            <mxRectangle width="280" height="80" as="alternateBounds" />
          </mxGeometry>
        </mxCell>
        <mxCell id="ST9J7T8Uzd0xjBjnx_Wn-38" value="" style="shape=tableRow;horizontal=0;startSize=0;swimlaneHead=0;swimlaneBody=0;fillColor=none;collapsible=0;dropTarget=0;points=[[0,0.5],[1,0.5]];portConstraint=eastwest;top=0;left=0;right=0;bottom=0;html=1;" parent="ST9J7T8Uzd0xjBjnx_Wn-31" vertex="1">
          <mxGeometry y="270" width="360" height="80" as="geometry" />
        </mxCell>
        <mxCell id="ST9J7T8Uzd0xjBjnx_Wn-39" value="" style="shape=partialRectangle;connectable=0;fillColor=none;top=0;left=0;bottom=0;right=0;editable=1;overflow=hidden;html=1;whiteSpace=wrap;fontSize=16;" parent="ST9J7T8Uzd0xjBjnx_Wn-38" vertex="1">
          <mxGeometry width="80" height="80" as="geometry">
            <mxRectangle width="80" height="80" as="alternateBounds" />
          </mxGeometry>
        </mxCell>
        <mxCell id="ST9J7T8Uzd0xjBjnx_Wn-40" value="creation_time" style="shape=partialRectangle;connectable=0;fillColor=none;top=0;left=0;bottom=0;right=0;align=left;spacingLeft=6;overflow=hidden;html=1;whiteSpace=wrap;fontSize=16;" parent="ST9J7T8Uzd0xjBjnx_Wn-38" vertex="1">
          <mxGeometry x="80" width="280" height="80" as="geometry">
            <mxRectangle width="280" height="80" as="alternateBounds" />
          </mxGeometry>
        </mxCell>
        <mxCell id="ST9J7T8Uzd0xjBjnx_Wn-47" value="Messages" style="shape=table;startSize=30;container=1;collapsible=1;childLayout=tableLayout;fixedRows=1;rowLines=0;fontStyle=1;align=center;resizeLast=1;html=1;whiteSpace=wrap;fontSize=16;" parent="1" vertex="1">
          <mxGeometry x="250" y="400" width="360" height="510" as="geometry" />
        </mxCell>
        <mxCell id="ST9J7T8Uzd0xjBjnx_Wn-48" value="" style="shape=tableRow;horizontal=0;startSize=0;swimlaneHead=0;swimlaneBody=0;fillColor=none;collapsible=0;dropTarget=0;points=[[0,0.5],[1,0.5]];portConstraint=eastwest;top=0;left=0;right=0;bottom=0;html=1;" parent="ST9J7T8Uzd0xjBjnx_Wn-47" vertex="1">
          <mxGeometry y="30" width="360" height="80" as="geometry" />
        </mxCell>
        <mxCell id="ST9J7T8Uzd0xjBjnx_Wn-49" value="PK" style="shape=partialRectangle;connectable=0;fillColor=none;top=0;left=0;bottom=0;right=0;fontStyle=1;overflow=hidden;html=1;whiteSpace=wrap;fontSize=16;" parent="ST9J7T8Uzd0xjBjnx_Wn-48" vertex="1">
          <mxGeometry width="60" height="80" as="geometry">
            <mxRectangle width="60" height="80" as="alternateBounds" />
          </mxGeometry>
        </mxCell>
        <mxCell id="ST9J7T8Uzd0xjBjnx_Wn-50" value="message_ID" style="shape=partialRectangle;connectable=0;fillColor=none;top=0;left=0;bottom=0;right=0;align=left;spacingLeft=6;fontStyle=5;overflow=hidden;html=1;whiteSpace=wrap;fontSize=16;" parent="ST9J7T8Uzd0xjBjnx_Wn-48" vertex="1">
          <mxGeometry x="60" width="300" height="80" as="geometry">
            <mxRectangle width="300" height="80" as="alternateBounds" />
          </mxGeometry>
        </mxCell>
        <mxCell id="ST9J7T8Uzd0xjBjnx_Wn-60" value="" style="shape=tableRow;horizontal=0;startSize=0;swimlaneHead=0;swimlaneBody=0;fillColor=none;collapsible=0;dropTarget=0;points=[[0,0.5],[1,0.5]];portConstraint=eastwest;top=0;left=0;right=0;bottom=1;html=1;" parent="ST9J7T8Uzd0xjBjnx_Wn-47" vertex="1">
          <mxGeometry y="110" width="360" height="80" as="geometry" />
        </mxCell>
        <mxCell id="ST9J7T8Uzd0xjBjnx_Wn-61" value="FK1" style="shape=partialRectangle;connectable=0;fillColor=none;top=0;left=0;bottom=0;right=0;fontStyle=1;overflow=hidden;html=1;whiteSpace=wrap;fontSize=16;" parent="ST9J7T8Uzd0xjBjnx_Wn-60" vertex="1">
          <mxGeometry width="60" height="80" as="geometry">
            <mxRectangle width="60" height="80" as="alternateBounds" />
          </mxGeometry>
        </mxCell>
        <mxCell id="ST9J7T8Uzd0xjBjnx_Wn-62" value="dialogue_ID" style="shape=partialRectangle;connectable=0;fillColor=none;top=0;left=0;bottom=0;right=0;align=left;spacingLeft=6;fontStyle=5;overflow=hidden;html=1;whiteSpace=wrap;fontSize=16;" parent="ST9J7T8Uzd0xjBjnx_Wn-60" vertex="1">
          <mxGeometry x="60" width="300" height="80" as="geometry">
            <mxRectangle width="300" height="80" as="alternateBounds" />
          </mxGeometry>
        </mxCell>
        <mxCell id="ST9J7T8Uzd0xjBjnx_Wn-63" value="" style="shape=tableRow;horizontal=0;startSize=0;swimlaneHead=0;swimlaneBody=0;fillColor=none;collapsible=0;dropTarget=0;points=[[0,0.5],[1,0.5]];portConstraint=eastwest;top=0;left=0;right=0;bottom=1;html=1;" parent="ST9J7T8Uzd0xjBjnx_Wn-47" vertex="1">
          <mxGeometry y="190" width="360" height="80" as="geometry" />
        </mxCell>
        <mxCell id="ST9J7T8Uzd0xjBjnx_Wn-64" value="FK2" style="shape=partialRectangle;connectable=0;fillColor=none;top=0;left=0;bottom=0;right=0;fontStyle=1;overflow=hidden;html=1;whiteSpace=wrap;fontSize=16;" parent="ST9J7T8Uzd0xjBjnx_Wn-63" vertex="1">
          <mxGeometry width="60" height="80" as="geometry">
            <mxRectangle width="60" height="80" as="alternateBounds" />
          </mxGeometry>
        </mxCell>
        <mxCell id="ST9J7T8Uzd0xjBjnx_Wn-65" value="sender_ID" style="shape=partialRectangle;connectable=0;fillColor=none;top=0;left=0;bottom=0;right=0;align=left;spacingLeft=6;fontStyle=5;overflow=hidden;html=1;whiteSpace=wrap;fontSize=16;" parent="ST9J7T8Uzd0xjBjnx_Wn-63" vertex="1">
          <mxGeometry x="60" width="300" height="80" as="geometry">
            <mxRectangle width="300" height="80" as="alternateBounds" />
          </mxGeometry>
        </mxCell>
        <mxCell id="ST9J7T8Uzd0xjBjnx_Wn-54" value="" style="shape=tableRow;horizontal=0;startSize=0;swimlaneHead=0;swimlaneBody=0;fillColor=none;collapsible=0;dropTarget=0;points=[[0,0.5],[1,0.5]];portConstraint=eastwest;top=0;left=0;right=0;bottom=0;html=1;" parent="ST9J7T8Uzd0xjBjnx_Wn-47" vertex="1">
          <mxGeometry y="270" width="360" height="80" as="geometry" />
        </mxCell>
        <mxCell id="ST9J7T8Uzd0xjBjnx_Wn-55" value="" style="shape=partialRectangle;connectable=0;fillColor=none;top=0;left=0;bottom=0;right=0;editable=1;overflow=hidden;html=1;whiteSpace=wrap;fontSize=16;" parent="ST9J7T8Uzd0xjBjnx_Wn-54" vertex="1">
          <mxGeometry width="60" height="80" as="geometry">
            <mxRectangle width="60" height="80" as="alternateBounds" />
          </mxGeometry>
        </mxCell>
        <mxCell id="ST9J7T8Uzd0xjBjnx_Wn-56" value="message_text" style="shape=partialRectangle;connectable=0;fillColor=none;top=0;left=0;bottom=0;right=0;align=left;spacingLeft=6;overflow=hidden;html=1;whiteSpace=wrap;fontSize=16;" parent="ST9J7T8Uzd0xjBjnx_Wn-54" vertex="1">
          <mxGeometry x="60" width="300" height="80" as="geometry">
            <mxRectangle width="300" height="80" as="alternateBounds" />
          </mxGeometry>
        </mxCell>
        <mxCell id="ST9J7T8Uzd0xjBjnx_Wn-66" value="" style="shape=tableRow;horizontal=0;startSize=0;swimlaneHead=0;swimlaneBody=0;fillColor=none;collapsible=0;dropTarget=0;points=[[0,0.5],[1,0.5]];portConstraint=eastwest;top=0;left=0;right=0;bottom=0;html=1;" parent="ST9J7T8Uzd0xjBjnx_Wn-47" vertex="1">
          <mxGeometry y="350" width="360" height="80" as="geometry" />
        </mxCell>
        <mxCell id="ST9J7T8Uzd0xjBjnx_Wn-67" value="" style="shape=partialRectangle;connectable=0;fillColor=none;top=0;left=0;bottom=0;right=0;editable=1;overflow=hidden;html=1;whiteSpace=wrap;fontSize=16;" parent="ST9J7T8Uzd0xjBjnx_Wn-66" vertex="1">
          <mxGeometry width="60" height="80" as="geometry">
            <mxRectangle width="60" height="80" as="alternateBounds" />
          </mxGeometry>
        </mxCell>
        <mxCell id="ST9J7T8Uzd0xjBjnx_Wn-68" value="is_read" style="shape=partialRectangle;connectable=0;fillColor=none;top=0;left=0;bottom=0;right=0;align=left;spacingLeft=6;overflow=hidden;html=1;whiteSpace=wrap;fontSize=16;" parent="ST9J7T8Uzd0xjBjnx_Wn-66" vertex="1">
          <mxGeometry x="60" width="300" height="80" as="geometry">
            <mxRectangle width="300" height="80" as="alternateBounds" />
          </mxGeometry>
        </mxCell>
        <mxCell id="ST9J7T8Uzd0xjBjnx_Wn-72" value="" style="shape=tableRow;horizontal=0;startSize=0;swimlaneHead=0;swimlaneBody=0;fillColor=none;collapsible=0;dropTarget=0;points=[[0,0.5],[1,0.5]];portConstraint=eastwest;top=0;left=0;right=0;bottom=0;html=1;" parent="ST9J7T8Uzd0xjBjnx_Wn-47" vertex="1">
          <mxGeometry y="430" width="360" height="80" as="geometry" />
        </mxCell>
        <mxCell id="ST9J7T8Uzd0xjBjnx_Wn-73" value="" style="shape=partialRectangle;connectable=0;fillColor=none;top=0;left=0;bottom=0;right=0;editable=1;overflow=hidden;html=1;whiteSpace=wrap;fontSize=16;" parent="ST9J7T8Uzd0xjBjnx_Wn-72" vertex="1">
          <mxGeometry width="60" height="80" as="geometry">
            <mxRectangle width="60" height="80" as="alternateBounds" />
          </mxGeometry>
        </mxCell>
        <mxCell id="ST9J7T8Uzd0xjBjnx_Wn-74" value="sending_date" style="shape=partialRectangle;connectable=0;fillColor=none;top=0;left=0;bottom=0;right=0;align=left;spacingLeft=6;overflow=hidden;html=1;whiteSpace=wrap;fontSize=16;" parent="ST9J7T8Uzd0xjBjnx_Wn-72" vertex="1">
          <mxGeometry x="60" width="300" height="80" as="geometry">
            <mxRectangle width="300" height="80" as="alternateBounds" />
          </mxGeometry>
        </mxCell>
        <mxCell id="ST9J7T8Uzd0xjBjnx_Wn-77" style="edgeStyle=orthogonalEdgeStyle;rounded=0;orthogonalLoop=1;jettySize=auto;html=1;exitX=0;exitY=0.5;exitDx=0;exitDy=0;entryX=0;entryY=0.5;entryDx=0;entryDy=0;" parent="1" source="ST9J7T8Uzd0xjBjnx_Wn-16" target="ST9J7T8Uzd0xjBjnx_Wn-35" edge="1">
          <mxGeometry relative="1" as="geometry">
            <Array as="points">
              <mxPoint x="970" y="910" />
              <mxPoint x="970" y="630" />
            </Array>
          </mxGeometry>
        </mxCell>
        <mxCell id="ST9J7T8Uzd0xjBjnx_Wn-78" style="edgeStyle=orthogonalEdgeStyle;rounded=0;orthogonalLoop=1;jettySize=auto;html=1;exitX=1;exitY=0.5;exitDx=0;exitDy=0;entryX=0;entryY=0.5;entryDx=0;entryDy=0;" parent="1" source="ST9J7T8Uzd0xjBjnx_Wn-16" target="ST9J7T8Uzd0xjBjnx_Wn-44" edge="1">
          <mxGeometry relative="1" as="geometry" />
        </mxCell>
        <mxCell id="ST9J7T8Uzd0xjBjnx_Wn-80" style="edgeStyle=orthogonalEdgeStyle;rounded=0;orthogonalLoop=1;jettySize=auto;html=1;exitX=0;exitY=0.5;exitDx=0;exitDy=0;entryX=1;entryY=0.5;entryDx=0;entryDy=0;" parent="1" source="ST9J7T8Uzd0xjBjnx_Wn-32" target="ST9J7T8Uzd0xjBjnx_Wn-60" edge="1">
          <mxGeometry relative="1" as="geometry" />
        </mxCell>
        <mxCell id="ST9J7T8Uzd0xjBjnx_Wn-81" style="edgeStyle=orthogonalEdgeStyle;rounded=0;orthogonalLoop=1;jettySize=auto;html=1;exitX=0;exitY=0.5;exitDx=0;exitDy=0;entryX=1;entryY=0.5;entryDx=0;entryDy=0;" parent="1" source="ST9J7T8Uzd0xjBjnx_Wn-16" target="ST9J7T8Uzd0xjBjnx_Wn-63" edge="1">
          <mxGeometry relative="1" as="geometry" />
        </mxCell>
      </root>
    </mxGraphModel>
  </diagram>
</mxfile>
